<svg width="25" height="25" xmlns="http://www.w3.org/2000/svg" class="svg-inline--fa fa-microphone-alt fa-w-11">
 <g>
  <title>background</title>
  <rect x="-1" y="-1" width="27" height="27" id="canvas_background" fill="none"/>
 </g>

 <g>
  <title>Layer 1</title>
  <path fill="#ffffff" d="m19.31657,9.77337l-0.68166,0c-0.37662,0 -0.68166,0.30504 -0.68166,0.68166l0,2.04497c0,3.18675 -2.7475,5.74381 -5.99815,5.42684c-2.83314,-0.2765 -4.90835,-2.82334 -4.90835,-5.66968l0,-1.80213c0,-0.37662 -0.30504,-0.68166 -0.68166,-0.68166l-0.68166,0c-0.37662,0 -0.68166,0.30504 -0.68166,0.68166l0,1.71096c0,3.81898 2.72535,7.22343 6.47574,7.74064l0,1.45491l-2.3858,0c-0.37662,0 -0.68166,0.30504 -0.68166,0.68166l0,0.68166c0,0.37662 0.30504,0.68166 0.68166,0.68166l6.81657,0c0.37662,0 0.68166,-0.30504 0.68166,-0.68166l0,-0.68166c0,-0.37662 -0.30504,-0.68166 -0.68166,-0.68166l-2.3858,0l0,-1.43872c3.65155,-0.50102 6.47574,-3.63536 6.47574,-7.42282l0,-2.04497c0,-0.37662 -0.30504,-0.68166 -0.68166,-0.68166zm-6.81657,6.81657c2.25884,0 4.08994,-1.8311 4.08994,-4.08994l-3.63536,0c-0.25093,0 -0.45458,-0.15252 -0.45458,-0.34083l0,-0.68166c0,-0.18831 0.20364,-0.34083 0.45458,-0.34083l3.63536,0l0,-1.36331l-3.63536,0c-0.25093,0 -0.45458,-0.15252 -0.45458,-0.34083l0,-0.68166c0,-0.18831 0.20364,-0.34083 0.45458,-0.34083l3.63536,0l0,-1.36331l-3.63536,0c-0.25093,0 -0.45458,-0.15252 -0.45458,-0.34083l0,-0.68166c0,-0.18831 0.20364,-0.34083 0.45458,-0.34083l3.63536,0c0,-2.25884 -1.8311,-4.08994 -4.08994,-4.08994s-4.08994,1.8311 -4.08994,4.08994l0,6.81657c0,2.25884 1.8311,4.08994 4.08994,4.08994z" id="svg_1"/>
 </g>
</svg>