<svg width="512" height="512" xmlns="http://www.w3.org/2000/svg">

 <g>
  <title>background</title>
  <rect fill="#202020" id="canvas_background" height="514" width="514" y="-1" x="-1"/>
 </g>
 <g>
  <title>Layer 1</title>
  <g stroke="null" id="svg_1">
   <g stroke="null" id="svg_2">
    <path stroke="null" id="svg_3" fill="#FFFFFF" class="active-path" d="m325.00782,298.76549c23.58527,0 42.77344,-19.18816 42.77344,-42.77344l0,-68.4375c0,-23.58527 -19.18816,-42.77344 -42.77344,-42.77344s-42.77344,19.18816 -42.77344,42.77344l0,68.4375c0,23.58527 19.18816,42.77344 42.77344,42.77344z"/>
    <path stroke="null" id="svg_4" fill="#FFFFFF" class="active-path" d="m393.44532,213.21861c-4.72447,0 -8.55469,3.83022 -8.55469,8.55469l0,34.21875c0,33.01938 -26.86343,59.88281 -59.88281,59.88281s-59.88281,-26.86343 -59.88281,-59.88281l0,-34.21875c0,-4.72447 -3.83022,-8.55469 -8.55469,-8.55469s-8.55469,3.83022 -8.55469,8.55469l0,34.21875c0,39.56201 29.99502,72.24491 68.4375,76.51427l0,34.69667l-25.66406,0c-4.72447,0 -8.55469,3.83022 -8.55469,8.55469s3.83022,8.55469 8.55469,8.55469l68.4375,0c4.72447,0 8.55469,-3.83022 8.55469,-8.55469s-3.83022,-8.55469 -8.55469,-8.55469l-25.66406,0l0,-34.69667c38.44248,-4.26936 68.4375,-36.95226 68.4375,-76.51427l0,-34.21875c0,-4.72504 -3.83022,-8.55469 -8.55469,-8.55469z"/>
    <path stroke="null" id="svg_5" fill="#FFFFFF" class="active-path" d="m265.125,187.55455c0,-4.72447 -3.83022,-8.55469 -8.55469,-8.55469l-12.39232,0l-14.74486,-29.48972c-3.29184,-6.58369 -12.85713,-6.19473 -15.59405,0.64845l-25.54544,63.86302l-26.83434,-80.50075c-2.58979,-7.7688 -13.63617,-7.78648 -16.23166,0l-15.15948,45.47843l-11.51347,0c-4.72447,0 -8.55469,3.83022 -8.55469,8.55469s3.83022,8.55469 8.55469,8.55469l17.67969,0c3.68194,0 6.95097,-2.35596 8.11555,-5.8497l8.99383,-26.98034l26.1032,78.30904c1.13549,3.40591 4.2762,5.7402 7.86461,5.8457c3.5405,0.10494 6.84375,-1.99895 8.19368,-5.37405l27.14402,-67.8592l8.59062,17.18009c1.44859,2.89833 4.4108,4.72903 7.65131,4.72903l17.67969,0c4.7239,0 8.55412,-3.83022 8.55412,-8.55469z"/>
   </g>
  </g>
 </g>
</svg>