<svg width="512" height="512" xmlns="http://www.w3.org/2000/svg">

 <g>
  <title>background</title>
  <rect fill="#202020" id="canvas_background" height="514" width="514" y="-1" x="-1"/>
 </g>
 <g>
  <title>Layer 1</title>
  <g stroke="null" id="svg_1">
   <g stroke="null" id="svg_2">
    <path stroke="null" id="svg_3" fill="#FFFFFF" class="active-path" d="m337.29688,306.38126c27.78539,0 50.39063,-22.60524 50.39063,-50.39063l0,-80.625c0,-27.78539 -22.60524,-50.39063 -50.39063,-50.39063s-50.39063,22.60524 -50.39063,50.39063l0,80.625c0,27.78539 22.60524,50.39063 50.39063,50.39063z"/>
    <path stroke="null" id="svg_4" fill="#FFFFFF" class="active-path" d="m417.92188,205.60001c-5.56581,0 -10.07813,4.51231 -10.07813,10.07813l0,40.3125c0,38.89955 -31.64733,70.54688 -70.54688,70.54688s-70.54688,-31.64733 -70.54688,-70.54688l0,-40.3125c0,-5.56581 -4.51231,-10.07813 -10.07813,-10.07813s-10.07813,4.51231 -10.07813,10.07813l0,40.3125c0,46.6073 35.33659,85.11044 80.625,90.1401l0,40.87553l-30.23438,0c-5.56581,0 -10.07813,4.51231 -10.07813,10.07813s4.51231,10.07813 10.07813,10.07813l80.625,0c5.56581,0 10.07813,-4.51231 10.07813,-10.07813s-4.51231,-10.07813 -10.07813,-10.07813l-30.23438,0l0,-40.87553c45.28841,-5.02966 80.625,-43.5328 80.625,-90.1401l0,-40.3125c0,-5.56648 -4.51231,-10.07813 -10.07813,-10.07813z"/>
    <path stroke="null" id="svg_5" fill="#FFFFFF" class="active-path" d="m266.75001,175.36563c0,-5.56581 -4.51231,-10.07813 -10.07813,-10.07813l-14.59917,0l-17.37066,-34.74131c-3.87806,-7.75613 -15.14675,-7.29791 -18.37108,0.76392l-30.09463,75.23589l-31.61306,-94.8365c-3.05098,-9.15228 -16.06453,-9.17311 -19.12223,0l-17.85911,53.57733l-13.56381,0c-5.56581,0 -10.07813,4.51231 -10.07813,10.07813s4.51231,10.07813 10.07813,10.07813l20.82813,0c4.33763,0 8.18881,-2.77552 9.56078,-6.89142l10.59547,-31.78506l30.75172,92.25449c1.3377,4.01244 5.03772,6.76242 9.26516,6.88672c4.171,0.12363 8.0625,-2.35492 9.65283,-6.33108l31.97789,-79.94372l10.12045,20.23956c1.70656,3.41447 5.19628,5.57119 9.01388,5.57119l20.82813,0c5.56514,0 10.07745,-4.51231 10.07745,-10.07813z"/>
   </g>
  </g>
 </g>
</svg>